<svg width="15" height="15" viewBox="0 0 15 15" fill="none" xmlns="http://www.w3.org/2000/svg">
<rect width="15" height="15" rx="7.5" fill="white"/>
<path d="M10.6774 9.30837C10.7721 9.40144 10.8473 9.51244 10.8986 9.6349C10.9499 9.75735 10.9763 9.88881 10.9763 10.0216C10.9764 10.1544 10.9499 10.2858 10.8986 10.4083C10.8473 10.5307 10.7721 10.6417 10.6774 10.7348C10.5828 10.8279 10.4706 10.9012 10.3473 10.9504C10.224 10.9996 10.0922 11.0238 9.9595 11.0215C9.8268 11.0191 9.69589 10.9904 9.57441 10.937C9.45293 10.8835 9.34331 10.8064 9.25194 10.7101L7.47549 8.90157L5.66791 10.6789C5.47783 10.8595 5.22449 10.9581 4.96246 10.9535C4.70043 10.949 4.45067 10.8416 4.26697 10.6546C4.08327 10.4676 3.98033 10.2159 3.98033 9.95368C3.98033 9.69147 4.08326 9.43975 4.26696 9.25274L6.07453 7.47536L4.29808 5.66687C4.11766 5.47669 4.01911 5.22323 4.02366 4.96106C4.02821 4.69889 4.1355 4.449 4.32242 4.26521C4.50933 4.08142 4.76092 3.97843 5.02299 3.97842C5.28507 3.97842 5.53666 4.0814 5.72357 4.26519L7.50003 6.07367L9.3076 4.29629C9.49768 4.11578 9.75102 4.01718 10.0131 4.02173C10.2751 4.02628 10.5248 4.13362 10.7085 4.32063C10.8922 4.50764 10.9952 4.75936 10.9952 5.02156C10.9952 5.28377 10.8922 5.53549 10.7086 5.7225L8.90098 7.49989L10.6774 9.30837Z" fill="black"/>
</svg>
