<svg width="8" height="9" viewBox="0 0 8 9" fill="none" xmlns="http://www.w3.org/2000/svg">
<path d="M7.67743 6.30837C7.77209 6.40144 7.84727 6.51244 7.89859 6.6349C7.94992 6.75735 7.97635 6.88881 7.97635 7.02159C7.97635 7.15437 7.94992 7.28583 7.8986 7.40828C7.84728 7.53074 7.7721 7.64174 7.67744 7.73482C7.58279 7.82789 7.47055 7.90118 7.34729 7.95039C7.22402 7.9996 7.0922 8.02376 6.9595 8.02145C6.8268 8.01915 6.69589 7.99043 6.57441 7.93696C6.45293 7.8835 6.34331 7.80636 6.25194 7.71005L4.47549 5.90157L2.66791 7.67895C2.47783 7.85946 2.22449 7.95806 1.96246 7.95351C1.70043 7.94896 1.45067 7.84162 1.26697 7.65461C1.08327 7.4676 0.980334 7.21588 0.980332 6.95368C0.980331 6.69147 1.08326 6.43975 1.26696 6.25274L3.07453 4.47536L1.29808 2.66687C1.11766 2.47669 1.01911 2.22323 1.02366 1.96106C1.02821 1.69889 1.1355 1.449 1.32242 1.26521C1.50933 1.08142 1.76092 0.978428 2.02299 0.978424C2.28507 0.97842 2.53666 1.0814 2.72357 1.26519L4.50003 3.07367L6.3076 1.29629C6.49768 1.11578 6.75102 1.01718 7.01305 1.02173C7.27509 1.02628 7.52485 1.13362 7.70854 1.32063C7.89224 1.50764 7.99518 1.75936 7.99518 2.02156C7.99518 2.28377 7.89225 2.53549 7.70855 2.7225L5.90098 4.49989L7.67743 6.30837Z" fill="black"/>
</svg>
