<svg width="8" height="8" viewBox="0 0 7.5 7.5" fill="none" xmlns="http://www.w3.org/2000/svg">
    <path d="M6.92377 5.35152C7.01843 5.44459 7.09361 5.5556 7.14493 5.67805C7.19625 5.8005 7.22269 5.93196 7.22269 6.06474C7.22269 6.19753 7.19626 6.32898 7.14494 6.45144C7.09362 6.57389 7.01844 6.6849 6.92378 6.77797C6.82913 6.87105 6.71689 6.94433 6.59362 6.99354C6.47036 7.04275 6.33853 7.06691 6.20584 7.0646C6.07314 7.0623 5.94223 7.03358 5.82075 6.98011C5.69927 6.92665 5.58965 6.84951 5.49828 6.7532L3.72182 4.94472L1.91425 6.7221C1.72417 6.90261 1.47083 7.00121 1.2088 6.99666C0.946764 6.99211 0.697003 6.88477 0.513306 6.69776C0.329609 6.51075 0.226672 6.25903 0.22667 5.99683C0.226669 5.73462 0.3296 5.4829 0.513295 5.29589L2.32087 3.51851L0.544415 1.71002C0.363994 1.51985 0.265447 1.26638 0.269999 1.00421C0.274552 0.742046 0.381842 0.492155 0.568757 0.308362C0.755672 0.124569 1.00726 0.0215798 1.26933 0.0215757C1.5314 0.0215717 1.78299 0.124553 1.96991 0.30834L3.74637 2.11683L5.55394 0.339445C5.74402 0.158929 5.99736 0.06033 6.25939 0.0648825C6.52142 0.0694351 6.77118 0.176775 6.95488 0.363785C7.13858 0.550794 7.24152 0.80251 7.24152 1.06472C7.24152 1.32692 7.13859 1.57864 6.95489 1.76566L5.14732 3.54304L6.92377 5.35152Z"
          fill="black"/>
</svg>
