<svg width="23" height="23" viewBox="0 0 23 23" fill="none" xmlns="http://www.w3.org/2000/svg">
<g id="open_in_new_off">
<path id="Vector" d="M16.7756 4.87787L14.1019 2.19453H20.8102V8.90287L18.1364 6.21953L14.2169 10.1391L12.8656 8.78787L16.7756 4.87787ZM18.8935 10.8195V14.8158L20.8102 16.7325V10.8195H18.8935ZM19.641 20.9875L18.0981 19.4445H5.47686C4.41311 19.4445 3.56019 18.582 3.56019 17.5279V4.90662L2.01727 3.3637L3.36852 2.01245L20.9827 19.6266L19.641 20.9875ZM16.1814 17.5279L11.5048 12.8512L9.98102 14.375L8.62977 13.0237L10.1535 11.5L5.47686 6.82328V17.5279H16.1814ZM8.18894 4.1112H12.1852V2.19453H6.27227L8.18894 4.1112Z" fill="black"/>
</g>
</svg>
