<svg width="34" height="34" viewBox="0 0 34 34" fill="none" xmlns="http://www.w3.org/2000/svg">
<g clip-path="url(#clip0_119_194)">
<path d="M24.0711 12.7573L20.5355 16.2928C19.7436 17.0848 19.2698 18.0818 19.1213 19.1213L14.8787 14.8786C15.9464 14.7301 16.9293 14.2422 17.7071 13.4644L21.2426 9.92887L24.0711 12.7573ZM27.6066 13.4644L20.5355 6.39334C20.1466 6.00443 19.5102 6.00443 19.1213 6.39334C18.7324 6.78225 18.7324 7.41864 19.1213 7.80755L19.8284 8.51466L16.2929 12.0502C15.1191 13.224 13.2241 13.224 12.0503 12.0502L10.636 13.4644L14.8575 17.6858L9.90772 22.6356V24.0498H11.3219L16.2717 19.1L20.5355 23.3639L21.9497 21.9497C20.776 20.7759 20.776 18.8808 21.9497 17.707L25.4853 14.1715L26.1924 14.8786C26.5813 15.2675 27.2177 15.2675 27.6066 14.8786C27.9955 14.4897 27.9955 13.8533 27.6066 13.4644Z" fill="#FFC700"/>
</g>
<defs>
<clipPath id="clip0_119_194">
<rect width="24" height="24" fill="white" transform="translate(17 0.0294189) rotate(45)"/>
</clipPath>
</defs>
</svg>
