<?xml version="1.0" standalone="no"?>
<!DOCTYPE svg PUBLIC "-//W3C//DTD SVG 20010904//EN"
 "http://www.w3.org/TR/2001/REC-SVG-20010904/DTD/svg10.dtd">
<svg version="1.0" xmlns="http://www.w3.org/2000/svg"
 width="70.000000pt" height="70.000000pt" viewBox="0 0 70.000000 70.000000"
 preserveAspectRatio="xMidYMid meet">

<g transform="translate(0.000000,70.000000) scale(0.100000,-0.100000)"
fill="#000000" stroke="none">
<path d="M293 440 c-33 -19 -42 -43 -23 -55 5 -3 23 4 39 16 22 16 38 20 59
16 20 -4 34 -1 42 8 10 12 7 17 -15 25 -39 15 -66 12 -102 -10z"/>
<path d="M360 345 c0 -10 10 -15 31 -15 28 0 31 -2 25 -25 -4 -14 -3 -25 2
-25 17 0 32 25 32 52 0 27 -2 28 -45 28 -33 0 -45 -4 -45 -15z"/>
</g>
</svg>
