<svg width="20" height="20" viewBox="0 0 20 20" fill="none" xmlns="http://www.w3.org/2000/svg">
<path d="M4.99998 8.33337C4.08331 8.33337 3.33331 9.08337 3.33331 10C3.33331 10.9167 4.08331 11.6667 4.99998 11.6667C5.91665 11.6667 6.66665 10.9167 6.66665 10C6.66665 9.08337 5.91665 8.33337 4.99998 8.33337ZM15 8.33337C14.0833 8.33337 13.3333 9.08337 13.3333 10C13.3333 10.9167 14.0833 11.6667 15 11.6667C15.9166 11.6667 16.6666 10.9167 16.6666 10C16.6666 9.08337 15.9166 8.33337 15 8.33337ZM9.99998 8.33337C9.08331 8.33337 8.33331 9.08337 8.33331 10C8.33331 10.9167 9.08331 11.6667 9.99998 11.6667C10.9166 11.6667 11.6666 10.9167 11.6666 10C11.6666 9.08337 10.9166 8.33337 9.99998 8.33337Z" fill="#808080"/>
</svg>
