<svg width="24" height="24" viewBox="0 0 24 24" fill="none" xmlns="http://www.w3.org/2000/svg">
<path d="M22.9385 1.06396C22.2562 0.382662 21.3314 0 20.3672 0C19.4029 0 18.4781 0.382662 17.7958 1.06396L1.47232 17.3878C1.00487 17.8526 0.634234 18.4055 0.38185 19.0145C0.129467 19.6235 0.000349307 20.2765 0.00196816 20.9358V22.9963C0.00196816 23.2625 0.10771 23.5178 0.295932 23.706C0.484154 23.8942 0.739438 24 1.00562 24H3.06613C3.72529 24.0018 4.37828 23.8729 4.98728 23.6207C5.59629 23.3685 6.14921 22.998 6.61405 22.5306L14.7763 14.3682L22.9385 6.2058C23.6195 5.52349 24.002 4.59888 24.002 3.63488C24.002 2.67088 23.6195 1.74627 22.9385 1.06396ZM5.19488 21.1114C4.62882 21.6737 3.864 21.9903 3.06613 21.9926H2.00928V20.9358C2.00826 20.5402 2.08571 20.1484 2.23715 19.783C2.38858 19.4176 2.61099 19.0858 2.89149 18.807L15.2796 6.41858L17.588 8.72703L5.19488 21.1114ZM21.5183 4.7866L19.0032 7.30281L16.6948 4.99938L19.2109 2.48316C19.3625 2.33191 19.5424 2.212 19.7403 2.13028C19.9382 2.04855 20.1503 2.0066 20.3644 2.00684C20.5785 2.00707 20.7905 2.04948 20.9882 2.13163C21.186 2.21379 21.3656 2.33409 21.5168 2.48567C21.6681 2.63724 21.788 2.81713 21.8697 3.01504C21.9514 3.21296 21.9934 3.42503 21.9932 3.63916C21.9929 3.85329 21.9505 4.06527 21.8684 4.26301C21.7862 4.46075 21.6659 4.64037 21.5143 4.79162L21.5183 4.7866Z" fill="#808080"/>
</svg>
