<svg width="20" height="20" viewBox="0 0 20 20" fill="none" xmlns="http://www.w3.org/2000/svg">
<path d="M10 1.66663C5.4 1.66663 1.66666 5.39996 1.66666 9.99996C1.66666 14.6 5.4 18.3333 10 18.3333C14.6 18.3333 18.3333 14.6 18.3333 9.99996C18.3333 5.39996 14.6 1.66663 10 1.66663ZM10 16.6666C6.31666 16.6666 3.33333 13.6833 3.33333 9.99996C3.33333 6.31663 6.31666 3.33329 10 3.33329C13.6833 3.33329 16.6667 6.31663 16.6667 9.99996C16.6667 13.6833 13.6833 16.6666 10 16.6666Z" fill="#808080"/>
<path d="M5.83333 11.25C6.52369 11.25 7.08333 10.6903 7.08333 9.99996C7.08333 9.3096 6.52369 8.74996 5.83333 8.74996C5.14298 8.74996 4.58333 9.3096 4.58333 9.99996C4.58333 10.6903 5.14298 11.25 5.83333 11.25Z" fill="#808080"/>
<path d="M10 11.25C10.6904 11.25 11.25 10.6903 11.25 9.99996C11.25 9.3096 10.6904 8.74996 10 8.74996C9.30964 8.74996 8.75 9.3096 8.75 9.99996C8.75 10.6903 9.30964 11.25 10 11.25Z" fill="#808080"/>
<path d="M14.1667 11.25C14.857 11.25 15.4167 10.6903 15.4167 9.99996C15.4167 9.3096 14.857 8.74996 14.1667 8.74996C13.4763 8.74996 12.9167 9.3096 12.9167 9.99996C12.9167 10.6903 13.4763 11.25 14.1667 11.25Z" fill="#808080"/>
</svg>
