<svg width="25" height="24" viewBox="0 0 25 24" fill="none" xmlns="http://www.w3.org/2000/svg">
<path d="M16.255 14.2549H15.465L15.185 13.9849C16.165 12.8449 16.755 11.3649 16.755 9.75488C16.755 6.16488 13.845 3.25488 10.255 3.25488C6.665 3.25488 3.755 6.16488 3.755 9.75488C3.755 13.3449 6.665 16.2549 10.255 16.2549C11.865 16.2549 13.345 15.6649 14.485 14.6849L14.755 14.9649V15.7549L19.755 20.7449L21.245 19.2549L16.255 14.2549ZM10.255 14.2549C7.76501 14.2549 5.755 12.2449 5.755 9.75488C5.755 7.26488 7.76501 5.25488 10.255 5.25488C12.745 5.25488 14.755 7.26488 14.755 9.75488C14.755 12.2449 12.745 14.2549 10.255 14.2549Z" fill="black"/>
</svg>
